<svg width="256px" height="256px" viewBox="-17 -17 134.00 134.00" enable-background="new 0 0 100 100" id="Layer_1" version="1.1" xml:space="preserve" xmlns="http://www.w3.org/2000/svg" xmlns:xlink="http://www.w3.org/1999/xlink" fill="#000000" stroke="#000000" stroke-width="0.2"><g id="SVGRepo_bgCarrier" stroke-width="0" transform="translate(8,8), scale(0.84)"><rect x="-17" y="-17" width="134.00" height="134.00" rx="25.46" fill="#7ed0ec" strokewidth="0"></rect></g><g id="SVGRepo_tracerCarrier" stroke-linecap="round" stroke-linejoin="round" stroke="#CCCCCC" stroke-width="3.6"> <g> <g> <rect clip-rule="evenodd" fill="#39B6CC" fill-rule="evenodd" height="83.475" width="62.341" x="15.031" y="8.263"></rect> <path d="M78.729,93.096H13.672V6.904h65.058V93.096z M16.389,90.378h59.624V9.622H16.389V90.378z"></path> </g> <g> <rect clip-rule="evenodd" fill="#FF7C24" fill-rule="evenodd" height="60.524" width="46.648" x="23.172" y="19.021"></rect> <path d="M71.179,80.904H21.814V17.663h49.365V80.904z M24.531,78.187h43.932V20.38H24.531V78.187z"></path> </g> <g> <path clip-rule="evenodd" d="M46.338,31.54c8.253,0,14.941,6.689,14.941,14.947 c0,8.252-6.688,14.941-14.941,14.941c-8.252,0-14.947-6.689-14.947-14.941C31.391,38.229,38.085,31.54,46.338,31.54L46.338,31.54z " fill="#FF7C24" fill-rule="evenodd"></path> <path d="M46.338,62.788c-8.991,0-16.305-7.313-16.305-16.301c0-8.991,7.314-16.306,16.305-16.306 c8.988,0,16.301,7.314,16.301,16.306C62.639,55.476,55.326,62.788,46.338,62.788z M46.338,32.898 c-7.492,0-13.588,6.096-13.588,13.589c0,7.49,6.096,13.583,13.588,13.583c7.49,0,13.583-6.093,13.583-13.583 C59.921,38.994,53.828,32.898,46.338,32.898z" fill="#F2F2F2"></path> </g> <g> <path clip-rule="evenodd" d="M46.338,38.369c4.482,0,8.113,3.631,8.113,8.118 c0,4.481-3.63,8.113-8.113,8.113c-4.482,0-8.118-3.632-8.118-8.113C38.22,42,41.856,38.369,46.338,38.369L46.338,38.369z" fill="#FF7C24" fill-rule="evenodd"></path> <path d="M46.338,55.958c-5.225,0-9.477-4.249-9.477-9.471c0-5.226,4.251-9.478,9.477-9.478 c5.223,0,9.471,4.252,9.471,9.478C55.809,51.709,51.561,55.958,46.338,55.958z M46.338,39.728c-3.727,0-6.759,3.032-6.759,6.76 c0,3.724,3.032,6.754,6.759,6.754c3.725,0,6.755-3.03,6.755-6.754C53.093,42.76,50.063,39.728,46.338,39.728z" fill="#F2F2F2"></path> </g> <g> <path clip-rule="evenodd" d="M66.334,83.629c-2.66-3.593-6.025-1.631-9.772-4.627 c-0.5-0.399-1.044-0.89-1.621-1.433c-3.02-2.853-3.429-2.328-8.146-4.521c-1.996-0.928-4.771-2.337-1.486-4.179 c2.539-1.424,5.122-2.188,9.488,0.654c2.101,1.365-0.982-3.372-1.207-3.757l-9.431-16.322c-2.067-3.583,2.866-7.319,5.429-2.991 l7.349,12.408c-2.467-4.165,2.856-6.526,5.016-2.728c-1.861-3,2.962-7.55,6.055-2.294c-1.679-2.688,3.68-5.555,5.896-1.548 l2.596,4.684c5.176,9.35,3.271,10.003,4.074,11.941c0.919,2.231,3.169,4.958,4.396,7.204l-16.904,9.994 C67.604,85.398,67.031,84.576,66.334,83.629L66.334,83.629z" fill="#F2F2F2" fill-rule="evenodd"></path> <path d="M68.066,87.474c-0.447,0-0.884-0.221-1.143-0.623c-0.45-0.699-1.001-1.489-1.683-2.417 c-1.117-1.509-2.339-1.75-4.029-2.085c-1.563-0.31-3.509-0.695-5.498-2.285c-0.472-0.377-1.013-0.855-1.703-1.506 c-1.939-1.831-2.58-2.089-4.482-2.856c-0.836-0.336-1.875-0.756-3.306-1.421c-1.48-0.688-3.716-1.729-3.789-3.625 c-0.042-1.125,0.701-2.125,2.21-2.972c1.276-0.715,2.842-1.446,4.782-1.446c1.049,0,2.129,0.216,3.261,0.652 c-0.038-0.061-0.076-0.122-0.115-0.186c-0.076-0.121-0.129-0.207-0.153-0.249l-9.435-16.331c-0.874-1.513-0.897-3.277-0.063-4.722 c0.803-1.391,2.251-2.255,3.779-2.255c0.938,0,2.711,0.34,4.058,2.613l5.062,8.546c0.75-0.903,1.907-1.443,3.154-1.443 c0.517,0,1.019,0.089,1.492,0.258c0.096-0.255,0.215-0.506,0.359-0.75c0.834-1.417,2.307-2.298,3.842-2.298 c0.563,0,1.42,0.125,2.342,0.71c0.822-1.125,2.265-1.834,3.786-1.834c1.788,0,3.354,0.979,4.299,2.685l2.596,4.684 c3.883,7.014,3.948,9.421,3.991,11.013c0.015,0.537,0.024,0.767,0.15,1.067c0.488,1.187,1.457,2.621,2.393,4.01 c0.69,1.023,1.403,2.081,1.939,3.063c0.352,0.643,0.13,1.447-0.5,1.82l-16.904,9.993C68.54,87.412,68.302,87.474,68.066,87.474z M45.229,70.576c0.22,0.229,0.787,0.611,2.138,1.24c1.368,0.636,2.371,1.04,3.177,1.365c2.01,0.811,3.019,1.217,5.33,3.399 c0.634,0.597,1.122,1.029,1.536,1.359c1.471,1.177,2.859,1.451,4.329,1.743c1.848,0.365,3.943,0.78,5.687,3.137 c0.389,0.529,0.739,1.017,1.054,1.472l14.626-8.647c-0.349-0.549-0.736-1.124-1.137-1.718c-1.013-1.501-2.06-3.054-2.652-4.492 c-0.321-0.774-0.338-1.413-0.354-2.031c-0.036-1.328-0.09-3.336-3.651-9.77l-2.596-4.684c-0.588-1.062-1.37-1.283-1.922-1.283 c-0.775,0-1.418,0.41-1.655,0.816c-0.121,0.208-0.124,0.38-0.007,0.59l0.047,0.078c0.376,0.641,0.168,1.465-0.468,1.851 c-0.635,0.386-1.462,0.188-1.856-0.442c-0.024-0.039-0.047-0.077-0.069-0.116c-0.647-1.065-1.4-1.653-2.12-1.653 c-0.568,0-1.157,0.377-1.5,0.96c-0.151,0.257-0.462,0.923-0.104,1.588c0.024,0.041,0.049,0.083,0.073,0.125 c0.366,0.644,0.149,1.462-0.488,1.839c-0.636,0.378-1.458,0.178-1.848-0.451c-0.03-0.05-0.06-0.1-0.088-0.149 c-0.599-0.975-1.345-1.12-1.737-1.12c-0.505,0-0.952,0.233-1.167,0.61c-0.275,0.483-0.168,1.186,0.3,1.978l0,0 c0.383,0.646,0.168,1.479-0.477,1.861c-0.646,0.382-1.479,0.169-1.861-0.477c0-0.001,0-0.002-0.001-0.003l-7.347-12.405 c-0.346-0.584-0.925-1.281-1.72-1.281c-0.552,0-1.111,0.353-1.426,0.897c-0.204,0.354-0.468,1.085,0.063,2.004l9.43,16.322 c0.014,0.023,0.055,0.089,0.111,0.18c1.924,3.087,2.313,4.181,1.809,5.088c-0.268,0.483-0.765,0.772-1.328,0.772 c-0.404,0-0.806-0.144-1.301-0.466c-1.766-1.149-3.28-1.707-4.631-1.707c-1.311,0-2.435,0.528-3.453,1.1 C45.559,70.286,45.341,70.466,45.229,70.576z"></path> </g> <g> <rect fill="#F2F2F2" height="2.718" width="14.673" x="39.23" y="12.127"></rect> </g> <g> <path clip-rule="evenodd" d="M45.886,83.162c1.322,0,2.4,1.072,2.4,2.395 c0,1.328-1.078,2.4-2.4,2.4c-1.327,0-2.4-1.072-2.4-2.4C43.486,84.234,44.559,83.162,45.886,83.162L45.886,83.162z" fill="#F2F2F2" fill-rule="evenodd"></path> </g> </g> </g><g id="SVGRepo_iconCarrier"> <g> <g> <rect clip-rule="evenodd" fill="#39B6CC" fill-rule="evenodd" height="83.475" width="62.341" x="15.031" y="8.263"></rect> <path d="M78.729,93.096H13.672V6.904h65.058V93.096z M16.389,90.378h59.624V9.622H16.389V90.378z"></path> </g> <g> <rect clip-rule="evenodd" fill="#FF7C24" fill-rule="evenodd" height="60.524" width="46.648" x="23.172" y="19.021"></rect> <path d="M71.179,80.904H21.814V17.663h49.365V80.904z M24.531,78.187h43.932V20.38H24.531V78.187z"></path> </g> <g> <path clip-rule="evenodd" d="M46.338,31.54c8.253,0,14.941,6.689,14.941,14.947 c0,8.252-6.688,14.941-14.941,14.941c-8.252,0-14.947-6.689-14.947-14.941C31.391,38.229,38.085,31.54,46.338,31.54L46.338,31.54z " fill="#FF7C24" fill-rule="evenodd"></path> <path d="M46.338,62.788c-8.991,0-16.305-7.313-16.305-16.301c0-8.991,7.314-16.306,16.305-16.306 c8.988,0,16.301,7.314,16.301,16.306C62.639,55.476,55.326,62.788,46.338,62.788z M46.338,32.898 c-7.492,0-13.588,6.096-13.588,13.589c0,7.49,6.096,13.583,13.588,13.583c7.49,0,13.583-6.093,13.583-13.583 C59.921,38.994,53.828,32.898,46.338,32.898z" fill="#F2F2F2"></path> </g> <g> <path clip-rule="evenodd" d="M46.338,38.369c4.482,0,8.113,3.631,8.113,8.118 c0,4.481-3.63,8.113-8.113,8.113c-4.482,0-8.118-3.632-8.118-8.113C38.22,42,41.856,38.369,46.338,38.369L46.338,38.369z" fill="#FF7C24" fill-rule="evenodd"></path> <path d="M46.338,55.958c-5.225,0-9.477-4.249-9.477-9.471c0-5.226,4.251-9.478,9.477-9.478 c5.223,0,9.471,4.252,9.471,9.478C55.809,51.709,51.561,55.958,46.338,55.958z M46.338,39.728c-3.727,0-6.759,3.032-6.759,6.76 c0,3.724,3.032,6.754,6.759,6.754c3.725,0,6.755-3.03,6.755-6.754C53.093,42.76,50.063,39.728,46.338,39.728z" fill="#F2F2F2"></path> </g> <g> <path clip-rule="evenodd" d="M66.334,83.629c-2.66-3.593-6.025-1.631-9.772-4.627 c-0.5-0.399-1.044-0.89-1.621-1.433c-3.02-2.853-3.429-2.328-8.146-4.521c-1.996-0.928-4.771-2.337-1.486-4.179 c2.539-1.424,5.122-2.188,9.488,0.654c2.101,1.365-0.982-3.372-1.207-3.757l-9.431-16.322c-2.067-3.583,2.866-7.319,5.429-2.991 l7.349,12.408c-2.467-4.165,2.856-6.526,5.016-2.728c-1.861-3,2.962-7.55,6.055-2.294c-1.679-2.688,3.68-5.555,5.896-1.548 l2.596,4.684c5.176,9.35,3.271,10.003,4.074,11.941c0.919,2.231,3.169,4.958,4.396,7.204l-16.904,9.994 C67.604,85.398,67.031,84.576,66.334,83.629L66.334,83.629z" fill="#F2F2F2" fill-rule="evenodd"></path> <path d="M68.066,87.474c-0.447,0-0.884-0.221-1.143-0.623c-0.45-0.699-1.001-1.489-1.683-2.417 c-1.117-1.509-2.339-1.75-4.029-2.085c-1.563-0.31-3.509-0.695-5.498-2.285c-0.472-0.377-1.013-0.855-1.703-1.506 c-1.939-1.831-2.58-2.089-4.482-2.856c-0.836-0.336-1.875-0.756-3.306-1.421c-1.48-0.688-3.716-1.729-3.789-3.625 c-0.042-1.125,0.701-2.125,2.21-2.972c1.276-0.715,2.842-1.446,4.782-1.446c1.049,0,2.129,0.216,3.261,0.652 c-0.038-0.061-0.076-0.122-0.115-0.186c-0.076-0.121-0.129-0.207-0.153-0.249l-9.435-16.331c-0.874-1.513-0.897-3.277-0.063-4.722 c0.803-1.391,2.251-2.255,3.779-2.255c0.938,0,2.711,0.34,4.058,2.613l5.062,8.546c0.75-0.903,1.907-1.443,3.154-1.443 c0.517,0,1.019,0.089,1.492,0.258c0.096-0.255,0.215-0.506,0.359-0.75c0.834-1.417,2.307-2.298,3.842-2.298 c0.563,0,1.42,0.125,2.342,0.71c0.822-1.125,2.265-1.834,3.786-1.834c1.788,0,3.354,0.979,4.299,2.685l2.596,4.684 c3.883,7.014,3.948,9.421,3.991,11.013c0.015,0.537,0.024,0.767,0.15,1.067c0.488,1.187,1.457,2.621,2.393,4.01 c0.69,1.023,1.403,2.081,1.939,3.063c0.352,0.643,0.13,1.447-0.5,1.82l-16.904,9.993C68.54,87.412,68.302,87.474,68.066,87.474z M45.229,70.576c0.22,0.229,0.787,0.611,2.138,1.24c1.368,0.636,2.371,1.04,3.177,1.365c2.01,0.811,3.019,1.217,5.33,3.399 c0.634,0.597,1.122,1.029,1.536,1.359c1.471,1.177,2.859,1.451,4.329,1.743c1.848,0.365,3.943,0.78,5.687,3.137 c0.389,0.529,0.739,1.017,1.054,1.472l14.626-8.647c-0.349-0.549-0.736-1.124-1.137-1.718c-1.013-1.501-2.06-3.054-2.652-4.492 c-0.321-0.774-0.338-1.413-0.354-2.031c-0.036-1.328-0.09-3.336-3.651-9.77l-2.596-4.684c-0.588-1.062-1.37-1.283-1.922-1.283 c-0.775,0-1.418,0.41-1.655,0.816c-0.121,0.208-0.124,0.38-0.007,0.59l0.047,0.078c0.376,0.641,0.168,1.465-0.468,1.851 c-0.635,0.386-1.462,0.188-1.856-0.442c-0.024-0.039-0.047-0.077-0.069-0.116c-0.647-1.065-1.4-1.653-2.12-1.653 c-0.568,0-1.157,0.377-1.5,0.96c-0.151,0.257-0.462,0.923-0.104,1.588c0.024,0.041,0.049,0.083,0.073,0.125 c0.366,0.644,0.149,1.462-0.488,1.839c-0.636,0.378-1.458,0.178-1.848-0.451c-0.03-0.05-0.06-0.1-0.088-0.149 c-0.599-0.975-1.345-1.12-1.737-1.12c-0.505,0-0.952,0.233-1.167,0.61c-0.275,0.483-0.168,1.186,0.3,1.978l0,0 c0.383,0.646,0.168,1.479-0.477,1.861c-0.646,0.382-1.479,0.169-1.861-0.477c0-0.001,0-0.002-0.001-0.003l-7.347-12.405 c-0.346-0.584-0.925-1.281-1.72-1.281c-0.552,0-1.111,0.353-1.426,0.897c-0.204,0.354-0.468,1.085,0.063,2.004l9.43,16.322 c0.014,0.023,0.055,0.089,0.111,0.18c1.924,3.087,2.313,4.181,1.809,5.088c-0.268,0.483-0.765,0.772-1.328,0.772 c-0.404,0-0.806-0.144-1.301-0.466c-1.766-1.149-3.28-1.707-4.631-1.707c-1.311,0-2.435,0.528-3.453,1.1 C45.559,70.286,45.341,70.466,45.229,70.576z"></path> </g> <g> <rect fill="#F2F2F2" height="2.718" width="14.673" x="39.23" y="12.127"></rect> </g> <g> <path clip-rule="evenodd" d="M45.886,83.162c1.322,0,2.4,1.072,2.4,2.395 c0,1.328-1.078,2.4-2.4,2.4c-1.327,0-2.4-1.072-2.4-2.4C43.486,84.234,44.559,83.162,45.886,83.162L45.886,83.162z" fill="#F2F2F2" fill-rule="evenodd"></path> </g> </g> </g></svg>